<svg width="61" height="13" viewBox="0 0 61 13" fill="none" xmlns="http://www.w3.org/2000/svg">
<path d="M3.40928 8.11333C2.74231 8.66322 2.13236 9 1 9C1.40155 8.61111 1.91151 8.08611 2.12473 7.27061C1.42845 6.711 1 5.94994 1 5.11111C1 3.393 2.79772 2 5.01546 2C7.06334 2 6 2.5 6 2.5" stroke="#0874FC" stroke-linecap="round" stroke-linejoin="round"/>
<path d="M10.5 9.889C7.46217 9.889 5 7.899 5 5.444C5 2.99 7.46217 1 10.5 1C13.5378 1 16 2.99 16 5.444C16 6.643 15.4133 7.73 14.46 8.529C14.7506 9.694 15.45 10.444 16 11C14.35 11 13.5103 10.456 12.524 9.578C11.897 9.778 11.215 9.889 10.5 9.889Z" stroke="#0874FC" stroke-width="1.5" stroke-linecap="round" stroke-linejoin="round"/>
<path d="M25.79 8.46191C25.8545 8.28906 25.9219 8.10303 25.9922 7.90381C26.0625 7.70459 26.1313 7.49951 26.1987 7.28857C26.2661 7.07471 26.3306 6.85938 26.3921 6.64258C26.4565 6.42285 26.5137 6.20752 26.5635 5.99658L26.1372 4.59912C26.1079 4.50244 26.1094 4.41895 26.1416 4.34863C26.1768 4.27539 26.231 4.21533 26.3042 4.16846C26.3774 4.11865 26.4639 4.08203 26.5635 4.05859C26.666 4.03516 26.7729 4.02344 26.8843 4.02344C26.981 4.02344 27.0674 4.0293 27.1436 4.04102C27.2197 4.0498 27.2856 4.06738 27.3413 4.09375C27.3999 4.12012 27.4482 4.1582 27.4863 4.20801C27.5244 4.25488 27.5552 4.31641 27.5786 4.39258L28.8398 8.45312C28.9072 8.27148 28.9775 8.0752 29.0508 7.86426C29.124 7.65332 29.1958 7.43652 29.2661 7.21387C29.3364 6.99121 29.4038 6.76562 29.4683 6.53711C29.5327 6.30859 29.5884 6.08447 29.6353 5.86475C29.6851 5.64502 29.7231 5.43555 29.7495 5.23633C29.7788 5.03418 29.7935 4.84961 29.7935 4.68262C29.7935 4.48926 29.7803 4.32812 29.7539 4.19922C29.7275 4.07031 29.6968 3.96338 29.6616 3.87842C29.6294 3.79053 29.6001 3.71875 29.5737 3.66309C29.5474 3.60742 29.5342 3.55615 29.5342 3.50928C29.5342 3.44775 29.5503 3.39648 29.5825 3.35547C29.6147 3.31152 29.6558 3.2749 29.7056 3.24561C29.7554 3.21631 29.8096 3.1958 29.8682 3.18408C29.9268 3.16943 29.9824 3.16211 30.0352 3.16211C30.1523 3.16211 30.252 3.17969 30.334 3.21484C30.416 3.25 30.4731 3.31006 30.5054 3.39502C30.52 3.43896 30.5317 3.48584 30.5405 3.53564C30.5493 3.58252 30.5552 3.62939 30.5581 3.67627C30.564 3.72021 30.5669 3.7627 30.5669 3.80371C30.5669 3.8418 30.5669 3.87256 30.5669 3.896C30.5669 4.01904 30.5464 4.1875 30.5054 4.40137C30.4673 4.61523 30.4131 4.85693 30.3428 5.12646C30.2754 5.39307 30.1978 5.68018 30.1099 5.98779C30.022 6.29541 29.9297 6.60596 29.833 6.91943C29.7393 7.22998 29.644 7.53467 29.5474 7.8335C29.4507 8.13232 29.3584 8.40918 29.2705 8.66406C29.1855 8.91602 29.1094 9.13867 29.042 9.33203C28.9775 9.52246 28.9277 9.66455 28.8926 9.7583C28.8691 9.82861 28.8369 9.88428 28.7959 9.92529C28.7578 9.96631 28.7124 9.99707 28.6597 10.0176C28.6099 10.041 28.5542 10.0557 28.4927 10.0615C28.4341 10.0674 28.3726 10.0703 28.3081 10.0703C28.1909 10.0703 28.0942 10.0586 28.0181 10.0352C27.9448 10.0117 27.8862 9.98242 27.8423 9.94727C27.7983 9.91211 27.7661 9.87402 27.7456 9.83301C27.7251 9.79199 27.709 9.75537 27.6973 9.72314L26.8228 6.84912C26.7261 7.16846 26.6279 7.4834 26.5283 7.79395C26.4287 8.10156 26.3335 8.38574 26.2427 8.64648C26.1548 8.90723 26.0757 9.13574 26.0054 9.33203C25.9351 9.52539 25.8809 9.66748 25.8428 9.7583C25.8135 9.82861 25.7769 9.88428 25.7329 9.92529C25.6919 9.96631 25.645 9.99707 25.5923 10.0176C25.5425 10.041 25.4883 10.0557 25.4297 10.0615C25.3711 10.0674 25.311 10.0703 25.2495 10.0703C25.1323 10.0703 25.0356 10.0586 24.9595 10.0352C24.8862 10.0117 24.8276 9.98242 24.7837 9.94727C24.7397 9.91211 24.7061 9.87402 24.6826 9.83301C24.6621 9.79199 24.646 9.75537 24.6343 9.72314L23.0698 4.49365C23.0405 4.39404 23.0083 4.31055 22.9731 4.24316C22.9409 4.17285 22.8999 4.11572 22.8501 4.07178C22.8032 4.02783 22.7446 3.99561 22.6743 3.9751C22.6069 3.95459 22.5234 3.94434 22.4238 3.94434C22.3418 3.94434 22.2466 3.96484 22.1382 4.00586C22.0298 4.04395 21.9258 4.10254 21.8262 4.18164C21.7295 4.25781 21.6475 4.35449 21.5801 4.47168C21.5127 4.58594 21.479 4.71924 21.479 4.87158C21.479 4.96533 21.4907 5.04004 21.5142 5.0957C21.5405 5.15137 21.5698 5.19385 21.6021 5.22314C21.6343 5.24951 21.6665 5.26709 21.6987 5.27588C21.7339 5.28174 21.7588 5.28467 21.7734 5.28467C21.8467 5.28467 21.9067 5.27295 21.9536 5.24951C22.0005 5.22314 22.043 5.19678 22.0811 5.17041C22.1191 5.14111 22.1543 5.11475 22.1865 5.09131C22.2217 5.06494 22.2612 5.05176 22.3052 5.05176C22.3403 5.05176 22.377 5.06055 22.415 5.07812C22.4561 5.09277 22.4927 5.11768 22.5249 5.15283C22.5601 5.18799 22.5894 5.23486 22.6128 5.29346C22.6362 5.34912 22.6479 5.41797 22.6479 5.5C22.6479 5.61719 22.6245 5.71826 22.5776 5.80322C22.5337 5.88818 22.4751 5.95996 22.4019 6.01855C22.3315 6.07422 22.2495 6.1167 22.1558 6.146C22.0649 6.17236 21.9741 6.18555 21.8833 6.18555C21.7427 6.18555 21.6167 6.16064 21.5054 6.11084C21.397 6.06104 21.3047 5.99365 21.2285 5.90869C21.1553 5.82373 21.0981 5.72559 21.0571 5.61426C21.019 5.5 21 5.37842 21 5.24951C21 4.94482 21.0586 4.67969 21.1758 4.4541C21.293 4.22559 21.4482 4.03516 21.6416 3.88281C21.835 3.73047 22.0547 3.61768 22.3008 3.54443C22.5469 3.46826 22.8003 3.43018 23.061 3.43018C23.354 3.43018 23.5942 3.47559 23.7817 3.56641C23.9692 3.6543 24.1201 3.76855 24.2344 3.90918C24.3516 4.0498 24.4438 4.20801 24.5112 4.38379C24.5786 4.55664 24.6387 4.72803 24.6914 4.89795L25.79 8.46191ZM32.3906 6.27344C32.499 6.11816 32.6221 5.979 32.7598 5.85596C32.8154 5.80322 32.877 5.75195 32.9443 5.70215C33.0146 5.65234 33.0879 5.6084 33.1641 5.57031C33.2432 5.5293 33.3252 5.49707 33.4102 5.47363C33.498 5.4502 33.5874 5.43848 33.6782 5.43848C33.8745 5.43848 34.0503 5.47656 34.2056 5.55273C34.3608 5.62891 34.4912 5.75635 34.5967 5.93506C34.7021 6.11377 34.7827 6.35107 34.8384 6.64697C34.894 6.93994 34.9219 7.30469 34.9219 7.74121C34.9219 8.16602 34.8838 8.53516 34.8076 8.84863C34.7314 9.16211 34.6318 9.42871 34.5088 9.64844C34.3857 9.86816 34.2466 10.0469 34.0913 10.1846C33.936 10.3252 33.7793 10.4351 33.6211 10.5142C33.4629 10.5933 33.3105 10.6475 33.1641 10.6768C33.0176 10.709 32.8916 10.7266 32.7861 10.7295L32.7422 10.5493C32.874 10.5171 32.9912 10.457 33.0938 10.3691C33.1963 10.2812 33.2827 10.1377 33.353 9.93848C33.4233 9.73633 33.4761 9.46533 33.5112 9.12549C33.5493 8.78564 33.5684 8.34766 33.5684 7.81152C33.5684 7.44238 33.5508 7.14795 33.5156 6.92822C33.4834 6.70557 33.4395 6.53711 33.3838 6.42285C33.3311 6.30566 33.2695 6.22949 33.1992 6.19434C33.1318 6.15625 33.063 6.13721 32.9927 6.13721C32.9077 6.13721 32.833 6.16064 32.7686 6.20752C32.7041 6.25146 32.647 6.30273 32.5972 6.36133C32.5503 6.41992 32.5093 6.47852 32.4741 6.53711C32.4419 6.5957 32.4141 6.63965 32.3906 6.66895V9.60449C32.3906 9.64258 32.3848 9.68945 32.373 9.74512C32.3613 9.79785 32.332 9.84912 32.2852 9.89893C32.2412 9.9458 32.1738 9.98535 32.083 10.0176C31.9951 10.0527 31.8735 10.0703 31.7183 10.0703C31.563 10.0703 31.4399 10.0513 31.3491 10.0132C31.2583 9.97803 31.1895 9.93555 31.1426 9.88574C31.0986 9.83594 31.0708 9.78467 31.0591 9.73193C31.0474 9.6792 31.0415 9.63672 31.0415 9.60449V3.93555C31.0415 3.85059 31.021 3.77734 30.98 3.71582C30.9419 3.65137 30.876 3.61914 30.7822 3.61914C30.7324 3.61914 30.6885 3.62793 30.6504 3.64551C30.6152 3.66016 30.5771 3.68359 30.5361 3.71582L30.4482 3.61035C30.5156 3.55469 30.5903 3.50049 30.6724 3.44775C30.7544 3.39209 30.8438 3.34375 30.9404 3.30273C31.04 3.26172 31.1455 3.22803 31.2568 3.20166C31.3682 3.17529 31.4854 3.16211 31.6084 3.16211C31.7988 3.16211 31.9468 3.18848 32.0522 3.24121C32.1577 3.29102 32.2354 3.354 32.2852 3.43018C32.335 3.50342 32.3643 3.58252 32.373 3.66748C32.3848 3.74951 32.3906 3.82275 32.3906 3.88721V6.27344ZM36.9653 7.98291C36.9653 8.07666 36.9785 8.1792 37.0049 8.29053C37.0342 8.39893 37.0752 8.50879 37.1279 8.62012C37.1807 8.73145 37.2451 8.83838 37.3213 8.94092C37.4004 9.04053 37.4897 9.12988 37.5894 9.20898C37.6919 9.28809 37.8047 9.35107 37.9277 9.39795C38.0508 9.44482 38.1855 9.46826 38.332 9.46826C38.4346 9.46826 38.5298 9.45654 38.6177 9.43311C38.7056 9.40967 38.7876 9.37744 38.8638 9.33643C38.9399 9.29541 39.0132 9.24854 39.0835 9.1958C39.1538 9.14014 39.2241 9.08154 39.2944 9.02002L39.4043 9.12549C39.3369 9.21631 39.2505 9.31592 39.145 9.42432C39.0396 9.53271 38.9121 9.63525 38.7627 9.73193C38.6133 9.82568 38.439 9.90479 38.2397 9.96924C38.0405 10.0308 37.8135 10.0615 37.5586 10.0615C37.3037 10.0615 37.0547 10.0161 36.8115 9.92529C36.5713 9.83154 36.3574 9.69238 36.1699 9.50781C35.9824 9.32324 35.8315 9.09326 35.7173 8.81787C35.606 8.54248 35.5503 8.22021 35.5503 7.85107C35.5503 7.58447 35.584 7.33984 35.6514 7.11719C35.7188 6.89453 35.8096 6.69385 35.9238 6.51514C36.041 6.33643 36.1758 6.17969 36.3281 6.04492C36.4834 5.91016 36.646 5.79883 36.8159 5.71094C36.9858 5.62012 37.1587 5.55273 37.3345 5.50879C37.5132 5.46191 37.6846 5.43848 37.8486 5.43848C38.0654 5.43848 38.2544 5.46191 38.4155 5.50879C38.5767 5.55566 38.71 5.61865 38.8154 5.69775C38.9238 5.77686 39.0044 5.86914 39.0571 5.97461C39.1099 6.07715 39.1362 6.18555 39.1362 6.2998C39.1362 6.4375 39.0967 6.56201 39.0176 6.67334C38.9385 6.78174 38.833 6.87695 38.7012 6.95898L36.9653 7.98291ZM37.8486 7.09082C37.8867 7.06738 37.9175 7.04541 37.9409 7.0249C37.9673 7.00146 37.9878 6.9751 38.0024 6.9458C38.0171 6.91357 38.0273 6.87549 38.0332 6.83154C38.042 6.78467 38.0464 6.72754 38.0464 6.66016C38.0464 6.58691 38.0376 6.50635 38.02 6.41846C38.0054 6.32764 37.979 6.24268 37.9409 6.16357C37.9028 6.08447 37.8545 6.01855 37.7959 5.96582C37.7373 5.91309 37.667 5.88672 37.585 5.88672C37.4795 5.88672 37.3887 5.91895 37.3125 5.9834C37.2393 6.04492 37.1777 6.12549 37.1279 6.2251C37.0811 6.32471 37.043 6.43896 37.0137 6.56787C36.9873 6.69385 36.9668 6.82129 36.9521 6.9502C36.9375 7.0791 36.9287 7.20361 36.9258 7.32373C36.9229 7.44092 36.9214 7.54053 36.9214 7.62256L37.8486 7.09082ZM41.2676 9.61328C41.2676 9.65137 41.2603 9.69678 41.2456 9.74951C41.2339 9.80225 41.2031 9.85205 41.1533 9.89893C41.1064 9.9458 41.0361 9.98535 40.9424 10.0176C40.8516 10.0527 40.7285 10.0703 40.5732 10.0703C40.418 10.0703 40.2964 10.0513 40.2085 10.0132C40.1206 9.97803 40.0547 9.93555 40.0107 9.88574C39.9697 9.83594 39.9434 9.78467 39.9316 9.73193C39.9229 9.6792 39.9185 9.63672 39.9185 9.60449V3.93555C39.9185 3.85059 39.8979 3.77734 39.8569 3.71582C39.8188 3.65137 39.7529 3.61914 39.6592 3.61914C39.6094 3.61914 39.5654 3.62793 39.5273 3.64551C39.4922 3.66016 39.4541 3.68359 39.4131 3.71582L39.3252 3.61035C39.3926 3.55469 39.4673 3.50049 39.5493 3.44775C39.6313 3.39209 39.7207 3.34375 39.8174 3.30273C39.917 3.26172 40.0225 3.22803 40.1338 3.20166C40.2451 3.17529 40.3623 3.16211 40.4854 3.16211C40.6758 3.16211 40.8237 3.18848 40.9292 3.24121C41.0347 3.29102 41.1123 3.354 41.1621 3.43018C41.2119 3.50342 41.2412 3.58252 41.25 3.66748C41.2617 3.74951 41.2676 3.82275 41.2676 3.88721V9.61328ZM42.4321 6.21191C42.4321 6.12695 42.4116 6.05371 42.3706 5.99219C42.3325 5.92773 42.2666 5.89551 42.1729 5.89551C42.123 5.89551 42.0806 5.9043 42.0454 5.92188C42.0103 5.93945 41.9722 5.96436 41.9312 5.99658L41.8389 5.88672C41.9062 5.83105 41.981 5.77686 42.063 5.72412C42.1479 5.66846 42.2388 5.62012 42.3354 5.5791C42.4321 5.53809 42.5361 5.50439 42.6475 5.47803C42.7588 5.45166 42.876 5.43848 42.999 5.43848C43.1309 5.43848 43.2437 5.45898 43.3374 5.5C43.4312 5.54102 43.5088 5.59082 43.5703 5.64941C43.6348 5.70508 43.6831 5.76514 43.7153 5.82959C43.7476 5.89111 43.7666 5.94385 43.7725 5.98779C43.8311 5.90576 43.8999 5.83105 43.979 5.76367C44.061 5.69629 44.1489 5.63916 44.2427 5.59229C44.3394 5.54248 44.4404 5.50439 44.5459 5.47803C44.6543 5.45166 44.7656 5.43848 44.8799 5.43848C45.1143 5.43848 45.3267 5.48682 45.5171 5.5835C45.7075 5.68018 45.8701 5.82373 46.0049 6.01416C46.1426 6.20459 46.248 6.44043 46.3213 6.72168C46.3945 7.00293 46.4312 7.32812 46.4312 7.69727C46.4312 8.125 46.3857 8.48975 46.2949 8.7915C46.207 9.09033 46.0898 9.33496 45.9434 9.52539C45.7998 9.71582 45.6343 9.85498 45.4468 9.94287C45.2622 10.0278 45.0732 10.0703 44.8799 10.0703C44.7188 10.0703 44.5767 10.0542 44.4536 10.022C44.3335 9.98975 44.2295 9.9502 44.1416 9.90332C44.0537 9.85645 43.9805 9.80957 43.9219 9.7627C43.8633 9.71289 43.8164 9.67188 43.7812 9.63965V11.7842C43.7812 11.8223 43.7754 11.8677 43.7637 11.9204C43.752 11.9731 43.7227 12.0229 43.6758 12.0698C43.6318 12.1196 43.5645 12.1621 43.4736 12.1973C43.3857 12.2324 43.2642 12.25 43.1089 12.25C42.9536 12.25 42.8306 12.231 42.7397 12.1929C42.6519 12.1577 42.5845 12.1138 42.5376 12.061C42.4907 12.0112 42.4614 11.96 42.4497 11.9072C42.438 11.8574 42.4321 11.8164 42.4321 11.7842V6.21191ZM43.7812 9.01123C43.7812 9.03467 43.7915 9.07568 43.812 9.13428C43.8325 9.19287 43.8647 9.25293 43.9087 9.31445C43.9526 9.37598 44.0083 9.43164 44.0757 9.48145C44.146 9.52832 44.231 9.55176 44.3306 9.55176C44.4595 9.55176 44.5693 9.50342 44.6602 9.40674C44.751 9.30713 44.8257 9.17383 44.8843 9.00684C44.9429 8.83691 44.9854 8.64062 45.0117 8.41797C45.0381 8.19238 45.0513 7.95215 45.0513 7.69727C45.0513 7.38379 45.0337 7.11865 44.9985 6.90186C44.9663 6.68506 44.918 6.51074 44.8535 6.37891C44.7891 6.24414 44.7114 6.14746 44.6206 6.08887C44.5327 6.02734 44.4331 5.99658 44.3218 5.99658C44.2573 5.99658 44.1929 6.01562 44.1284 6.05371C44.064 6.08887 44.0054 6.13428 43.9526 6.18994C43.9028 6.24268 43.8618 6.30273 43.8296 6.37012C43.7974 6.4375 43.7812 6.50195 43.7812 6.56348V9.01123Z" fill="#0874FC"/>
</svg>
